<?xml version="1.0" encoding="utf-8"?>
<!-- Generator: Adobe Illustrator 24.0.0, SVG Export Plug-In . SVG Version: 6.00 Build 0)  -->
<svg version="1.1" id="Layer_1" xmlns="http://www.w3.org/2000/svg" xmlns:xlink="http://www.w3.org/1999/xlink" x="0px" y="0px"
	 viewBox="0 0 160 80" style="enable-background:new 0 0 160 80;" xml:space="preserve">
<style type="text/css">
	.st0{fill:#FFFFFF;}
</style>
<path class="st0" d="M40,5c19.3,0,35,15.7,35,35S59.3,75,40,75S5,59.3,5,40S20.7,5,40,5 M40,0C17.91,0,0,17.91,0,40s17.91,40,40,40
	s40-17.91,40-40S62.09,0,40,0L40,0z"/>
<path class="st0" d="M40,25c8.27,0,15,6.73,15,15s-6.73,15-15,15s-15-6.73-15-15S31.73,25,40,25 M40,20c-11.05,0-20,8.95-20,20
	s8.95,20,20,20s20-8.95,20-20S51.05,20,40,20L40,20z"/>
<path class="st0" d="M122.57,80V33.92h-7.51v-7.4h7.51c-1.48-18.58,10.67-30.65,27.52-24.64l-1.33,7.51
	c-12.25-5.05-17.8,5.66-16.58,17.13h12.93v7.4h-12.93V80H122.57z"/>
</svg>
